<svg xmlns="http://www.w3.org/2000/svg" fill="none" viewBox="0 0 24 24"><linearGradient id="Aura2_svg__a" x1="19.788" x2="6.276" y1="1.754" y2="24.086" gradientUnits="userSpaceOnUse"><stop offset="0" stop-color="#fbd3c6"/><stop offset=".51" stop-color="#f5cdff"/><stop offset="1" stop-color="#f69ca2"/></linearGradient><linearGradient id="Aura2_svg__b" x1="2.484" x2="10.728" y1="21.662" y2="13.826" gradientUnits="userSpaceOnUse"><stop offset="0" stop-color="#f98d8d"/><stop offset=".964" stop-color="#f98d8d" stop-opacity="0"/></linearGradient><linearGradient id="Aura2_svg__c" x1="24.948" x2="18.528" y1="17.246" y2="8.81" gradientUnits="userSpaceOnUse"><stop offset="0" stop-color="#ffcea2" stop-opacity=".9"/><stop offset="1" stop-color="#ffcea1" stop-opacity="0"/></linearGradient><linearGradient id="Aura2_svg__d" x1="20.904" x2="13.812" y1="2.966" y2="10.154" gradientUnits="userSpaceOnUse"><stop offset="0" stop-color="#a7fffa"/><stop offset="1" stop-color="#a7fffa" stop-opacity="0"/></linearGradient><linearGradient id="Aura2_svg__e" x1="3.096" x2="12.024" y1="1.106" y2="8.318" gradientUnits="userSpaceOnUse"><stop offset="0" stop-color="#ffed8f"/><stop offset="1" stop-color="#ffed8f" stop-opacity="0"/></linearGradient><clipPath id="Aura2_svg__f"><path d="M0 .086h24v24H0z"/></clipPath><g clip-path="url('#Aura2_svg__f')"><path fill="#fff" d="M24 .086H0v24h24v-24z"/><path fill="url(#Aura2_svg__a)" d="M24.012.086h-24v24h24v-24z"/><path fill="url(#Aura2_svg__b)" d="M24.012.086h-24v24h24v-24z"/><path fill="url(#Aura2_svg__c)" d="M24.012.086h-24v24h24v-24z"/><path fill="url(#Aura2_svg__d)" d="M24.012.086h-24v24h24v-24z"/><path fill="url(#Aura2_svg__e)" d="M24.012.086h-24v24h24v-24z"/></g></svg>