<svg xmlns="http://www.w3.org/2000/svg" fill="none" viewBox="0 0 24 24"><linearGradient id="Aura1_svg__a" x1="19.788" x2="6.276" y1="1.754" y2="24.086" gradientUnits="userSpaceOnUse"><stop offset="0" stop-color="#6dfddd"/><stop offset=".51" stop-color="#8df4da"/><stop offset="1" stop-color="#7cc7f1"/></linearGradient><linearGradient id="Aura1_svg__b" x1="1.812" x2="10.728" y1="20.45" y2="13.826" gradientUnits="userSpaceOnUse"><stop offset="0" stop-color="#7cb6fc"/><stop offset=".964" stop-color="#7cb6fc" stop-opacity="0"/></linearGradient><linearGradient id="Aura1_svg__c" x1="22.272" x2="16.548" y1="18.494" y2="11.234" gradientUnits="userSpaceOnUse"><stop offset="0" stop-color="#c6fffb"/><stop offset=".964" stop-color="#bafffa" stop-opacity="0"/></linearGradient><linearGradient id="Aura1_svg__d" x1="20.904" x2="13.812" y1="2.966" y2="10.154" gradientUnits="userSpaceOnUse"><stop offset="0" stop-color="#7efedf"/><stop offset="1" stop-color="#7bffe1" stop-opacity="0"/></linearGradient><linearGradient id="Aura1_svg__e" x1="3.096" x2="12.024" y1="1.106" y2="8.318" gradientUnits="userSpaceOnUse"><stop offset="0" stop-color="#91e5ff"/><stop offset="1" stop-color="#91e5ff" stop-opacity="0"/></linearGradient><clipPath id="Aura1_svg__f"><path d="M0 .086h24v24H0z"/></clipPath><g clip-path="url('#Aura1_svg__f')"><path fill="#fff" d="M24 .086H0v24h24v-24z"/><path fill="url(#Aura1_svg__a)" d="M24.012.086h-24v24h24v-24z"/><path fill="url(#Aura1_svg__b)" d="M24.012.086h-24v24h24v-24z"/><path fill="url(#Aura1_svg__c)" d="M24.012.086h-24v24h24v-24z"/><path fill="url(#Aura1_svg__d)" d="M24.012.086h-24v24h24v-24z"/><path fill="url(#Aura1_svg__e)" d="M24.012.086h-24v24h24v-24z"/></g></svg>