<svg xmlns="http://www.w3.org/2000/svg" fill="none" viewBox="0 0 24 24"><linearGradient id="Aura5_svg__a" x1="19.788" x2="6.276" y1="1.754" y2="24.086" gradientUnits="userSpaceOnUse"><stop offset="0" stop-color="#e495ff"/><stop offset=".51" stop-color="#ebabff"/><stop offset="1" stop-color="#bfa1ff"/></linearGradient><linearGradient id="Aura5_svg__b" x1="2.484" x2="10.728" y1="21.662" y2="13.826" gradientUnits="userSpaceOnUse"><stop offset="0" stop-color="#8c9bff"/><stop offset=".964" stop-color="#8c9bff" stop-opacity="0"/></linearGradient><linearGradient id="Aura5_svg__c" x1="25.02" x2="19.404" y1="17.21" y2="10.442" gradientUnits="userSpaceOnUse"><stop offset="0" stop-color="#fffbe7" stop-opacity=".9"/><stop offset="1" stop-color="#feeadf" stop-opacity="0"/></linearGradient><linearGradient id="Aura5_svg__d" x1="20.904" x2="13.812" y1="2.966" y2="10.154" gradientUnits="userSpaceOnUse"><stop offset="0" stop-color="#ff678b"/><stop offset="1" stop-color="#ff678b" stop-opacity="0"/></linearGradient><linearGradient id="Aura5_svg__e" x1="3.096" x2="12.024" y1="1.106" y2="8.318" gradientUnits="userSpaceOnUse"><stop offset="0" stop-color="#8d9fff"/><stop offset="1" stop-color="#8d9fff" stop-opacity="0"/></linearGradient><clipPath id="Aura5_svg__f"><path d="M0 .086h24v24H0z"/></clipPath><g clip-path="url('#Aura5_svg__f')"><path fill="#fff" d="M24 .086H0v24h24v-24z"/><path fill="url(#Aura5_svg__a)" d="M24.012.086h-24v24h24v-24z"/><path fill="url(#Aura5_svg__b)" d="M24.012.086h-24v24h24v-24z"/><path fill="url(#Aura5_svg__c)" d="M24.012.086h-24v24h24v-24z"/><path fill="url(#Aura5_svg__d)" d="M24.012.086h-24v24h24v-24z"/><path fill="url(#Aura5_svg__e)" d="M24.012.086h-24v24h24v-24z"/></g></svg>