<svg xmlns="http://www.w3.org/2000/svg" fill="none" viewBox="0 0 24 24"><linearGradient id="Aura11_svg__a" x1="1.674" x2="24.006" y1="4.311" y2="17.823" gradientUnits="userSpaceOnUse"><stop offset="0" stop-color="#c6fbee"/><stop offset=".51" stop-color="#f2f8f2"/><stop offset="1" stop-color="#c4fdf5"/></linearGradient><linearGradient id="Aura11_svg__b" x1="21.582" x2="13.746" y1="21.615" y2="13.371" gradientUnits="userSpaceOnUse"><stop offset="0" stop-color="#8dccf9"/><stop offset=".964" stop-color="#8df9f9" stop-opacity="0"/></linearGradient><linearGradient id="Aura11_svg__c" x1="17.166" x2="8.73" y1="-.849" y2="5.571" gradientUnits="userSpaceOnUse"><stop offset="0" stop-color="#fadefc" stop-opacity=".9"/><stop offset="1" stop-color="#def5fc" stop-opacity="0"/></linearGradient><linearGradient id="Aura11_svg__d" x1="2.886" x2="10.074" y1="3.195" y2="10.287" gradientUnits="userSpaceOnUse"><stop offset="0" stop-color="#7f74ff"/><stop offset="1" stop-color="#aea7ff" stop-opacity="0"/></linearGradient><linearGradient id="Aura11_svg__e" x1="1.026" x2="8.238" y1="21.003" y2="12.075" gradientUnits="userSpaceOnUse"><stop offset="0" stop-color="#acff8f"/><stop offset="1" stop-color="#ffcb8f" stop-opacity="0"/></linearGradient><clipPath id="Aura11_svg__f"><path d="M0 .086h24v24H0z"/></clipPath><g clip-path="url('#Aura11_svg__f')"><path fill="#fff" d="M.006.087v24h24v-24h-24z"/><path fill="url(#Aura11_svg__a)" d="M.006.087v24h24v-24h-24z"/><path fill="url(#Aura11_svg__b)" d="M.006.087v24h24v-24h-24z"/><path fill="url(#Aura11_svg__c)" d="M.006.087v24h24v-24h-24z"/><path fill="url(#Aura11_svg__d)" d="M.006.087v24h24v-24h-24z"/><path fill="url(#Aura11_svg__e)" d="M.006.087v24h24v-24h-24z"/></g></svg>